<svg width="2478" height="2038" viewBox="0 0 2478 2038" fill="none" xmlns="http://www.w3.org/2000/svg">
<path d="M604.013 1452.08C691.775 1396.88 789.863 1353.36 898.275 1321.52C1006.69 1289.67 1120.26 1273.75 1239 1273.75C1357.74 1273.75 1471.31 1289.67 1579.72 1321.52C1688.14 1353.36 1786.22 1396.88 1873.99 1452.08C1934.22 1394.05 1981.11 1328.24 2014.67 1254.64C2048.22 1181.05 2065 1102.5 2065 1019C2065 830.769 1984.55 670.488 1823.65 538.16C1662.76 405.832 1467.87 339.667 1239 339.667C1010.13 339.667 815.245 405.832 654.347 538.16C493.449 670.488 413 830.769 413 1019C413 1102.5 429.778 1181.05 463.334 1254.64C496.891 1328.24 543.783 1394.05 604.013 1452.08ZM1239 1103.92C1137.47 1103.92 1051.86 1075.26 982.166 1017.94C912.472 960.62 877.625 890.21 877.625 806.709C877.625 723.208 912.472 652.798 982.166 595.479C1051.86 538.16 1137.47 509.501 1239 509.501C1340.53 509.501 1426.14 538.16 1495.83 595.479C1565.53 652.798 1600.38 723.208 1600.38 806.709C1600.38 890.21 1565.53 960.62 1495.83 1017.94C1426.14 1075.26 1340.53 1103.92 1239 1103.92ZM1239 1868.17C1096.17 1868.17 961.946 1845.88 836.325 1801.3C710.704 1756.71 601.431 1696.21 508.506 1619.79C415.581 1543.36 342.016 1453.49 287.809 1350.18C233.603 1246.86 206.5 1136.47 206.5 1019C206.5 901.533 233.603 791.141 287.809 687.826C342.016 584.51 415.581 494.64 508.506 418.215C601.431 341.79 710.704 281.287 836.325 236.706C961.946 192.125 1096.17 169.834 1239 169.834C1381.83 169.834 1516.05 192.125 1641.68 236.706C1767.3 281.287 1876.57 341.79 1969.49 418.215C2062.42 494.64 2135.98 584.51 2190.19 687.826C2244.4 791.141 2271.5 901.533 2271.5 1019C2271.5 1136.47 2244.4 1246.86 2190.19 1350.18C2135.98 1453.49 2062.42 1543.36 1969.49 1619.79C1876.57 1696.21 1767.3 1756.71 1641.68 1801.3C1516.05 1845.88 1381.83 1868.17 1239 1868.17Z" fill="#007AFF"/>
</svg>
