<svg width="17" height="16" viewBox="0 0 17 16" fill="none" xmlns="http://www.w3.org/2000/svg">
<path d="M6.2538 0.526248C4.65515 1.08083 3.27648 2.13346 2.32029 3.5295C1.36409 4.92554 0.880786 6.59143 0.94135 8.28245C1.00191 9.97348 1.60316 11.6005 2.65677 12.9246C3.71038 14.2486 5.16082 15.1999 6.79505 15.6387C8.11995 15.9806 9.50806 15.9956 10.84 15.6825C12.0467 15.4115 13.1623 14.8317 14.0775 14C15.0301 13.1079 15.7216 11.9731 16.0775 10.7175C16.4644 9.35208 16.5333 7.91616 16.2788 6.52H8.8388V9.60625H13.1475C13.0614 10.0985 12.8769 10.5683 12.605 10.9875C12.3331 11.4068 11.9794 11.7669 11.565 12.0462C11.0389 12.3943 10.4458 12.6285 9.8238 12.7337C9.19998 12.8497 8.56012 12.8497 7.9363 12.7337C7.30403 12.603 6.70592 12.3421 6.18005 11.9675C5.33523 11.3695 4.70089 10.5199 4.36755 9.54C4.02857 8.54174 4.02857 7.45951 4.36755 6.46125C4.60483 5.76152 4.99709 5.12442 5.51505 4.5975C6.10779 3.98343 6.85821 3.54449 7.68399 3.32884C8.50977 3.11319 9.379 3.12916 10.1963 3.375C10.8348 3.57099 11.4186 3.91342 11.9013 4.375C12.3871 3.89166 12.8721 3.40708 13.3563 2.92125C13.6063 2.66 13.8788 2.41125 14.125 2.14375C13.3883 1.45809 12.5234 0.924569 11.58 0.573748C9.86218 -0.0500151 7.98252 -0.0667781 6.2538 0.526248Z" fill="white"/>
<path d="M6.25381 0.526245C7.98238 -0.067184 9.86204 -0.0508623 11.5801 0.572495C12.5236 0.925699 13.388 1.46179 14.1238 2.14999C13.8738 2.41749 13.6101 2.66749 13.3551 2.92749C12.8701 3.41166 12.3855 3.89416 11.9013 4.37499C11.4186 3.91342 10.8348 3.57098 10.1963 3.37499C9.37927 3.1283 8.51008 3.1114 7.68408 3.32617C6.85808 3.54094 6.10719 3.97907 5.5138 4.59249C4.99585 5.11941 4.60359 5.75652 4.3663 6.45624L1.77505 4.44999C2.70257 2.6107 4.30849 1.20377 6.25381 0.526245Z" fill="#E33629"/>
<path d="M1.08755 6.43751C1.22683 5.74725 1.45806 5.0788 1.77505 4.45001L4.3663 6.46126C4.02732 7.45952 4.02732 8.54175 4.3663 9.54001C3.50297 10.2067 2.63922 10.8767 1.77505 11.55C0.981491 9.97041 0.739468 8.17064 1.08755 6.43751Z" fill="#F8BD00"/>
<path d="M8.83881 6.51874H16.2788C16.5333 7.9149 16.4645 9.35082 16.0776 10.7162C15.7216 11.9718 15.0302 13.1067 14.0776 13.9987C13.2413 13.3462 12.4013 12.6987 11.5651 12.0462C11.9797 11.7666 12.3335 11.4061 12.6055 10.9864C12.8774 10.5667 13.0618 10.0964 13.1476 9.60374H8.83881C8.83756 8.57624 8.83881 7.54749 8.83881 6.51874Z" fill="#587DBD"/>
<path d="M1.7738 11.55C2.63797 10.8833 3.50172 10.2133 4.36505 9.54001C4.69906 10.5203 5.33431 11.3699 6.18005 11.9675C6.70756 12.3403 7.30697 12.5992 7.94005 12.7275C8.56387 12.8435 9.20373 12.8435 9.82755 12.7275C10.4495 12.6222 11.0427 12.388 11.5688 12.04C12.4051 12.6925 13.2451 13.34 14.0813 13.9925C13.1662 14.8247 12.0506 15.4049 10.8438 15.6763C9.51181 15.9894 8.12371 15.9744 6.7988 15.6325C5.75093 15.3527 4.77215 14.8595 3.9238 14.1838C3.02588 13.4709 2.2925 12.5725 1.7738 11.55Z" fill="#319F43"/>
</svg>
