<svg width="18" height="18" viewBox="0 0 18 18" fill="none" xmlns="http://www.w3.org/2000/svg">
<path d="M14.645 2.47502H11.045C10.9011 2.04731 10.6266 1.67557 10.2601 1.41222C9.89365 1.14887 9.45377 1.0072 9.0025 1.0072C8.55123 1.0072 8.11135 1.14887 7.74489 1.41222C7.37844 1.67557 7.1039 2.04731 6.96 2.47502H3.5C3.37755 2.45731 3.25274 2.46577 3.1338 2.49984C3.01486 2.53391 2.9045 2.59281 2.81 2.67267C2.7155 2.75252 2.639 2.85151 2.58557 2.96309C2.53213 3.07468 2.50297 3.19633 2.5 3.32002V16.13C2.50065 16.2416 2.52329 16.352 2.56661 16.4549C2.60993 16.5578 2.6731 16.6511 2.75249 16.7296C2.83188 16.8081 2.92596 16.8701 3.02934 16.9122C3.13272 16.9543 3.24338 16.9757 3.355 16.975H14.645C14.7566 16.9757 14.8673 16.9543 14.9707 16.9122C15.074 16.8701 15.1681 16.8081 15.2475 16.7296C15.3269 16.6511 15.3901 16.5578 15.4334 16.4549C15.4767 16.352 15.4993 16.2416 15.5 16.13V3.32002C15.4993 3.2084 15.4767 3.09799 15.4334 2.99512C15.3901 2.89224 15.3269 2.79891 15.2475 2.72044C15.1681 2.64197 15.074 2.57991 14.9707 2.53781C14.8673 2.4957 14.7566 2.47436 14.645 2.47502ZM5.645 3.97502C5.645 3.84241 5.69768 3.71524 5.79145 3.62147C5.88521 3.5277 6.01239 3.47502 6.145 3.47502H7.865V3.16002C7.865 2.85303 7.98695 2.55862 8.20402 2.34154C8.4211 2.12447 8.71551 2.00252 9.0225 2.00252C9.32949 2.00252 9.6239 2.12447 9.84098 2.34154C10.058 2.55862 10.18 2.85303 10.18 3.16002V3.50002H11.9C12.0326 3.50002 12.1598 3.5527 12.2536 3.64647C12.3473 3.74024 12.4 3.86741 12.4 4.00002V4.90002H5.625L5.645 3.97502ZM12.905 8.59002L8.345 13.15L5.725 10.53C5.59239 10.3974 5.51789 10.2176 5.51789 10.03C5.51789 9.84248 5.59239 9.66263 5.725 9.53002C5.85761 9.39741 6.03746 9.32291 6.225 9.32291C6.41254 9.32291 6.59239 9.39741 6.725 9.53002L8.355 11.16L11.925 7.59002C12.0576 7.45741 12.2375 7.38291 12.425 7.38291C12.6125 7.38291 12.7924 7.45741 12.925 7.59002C13.0576 7.72263 13.1321 7.90248 13.1321 8.09002C13.1321 8.27756 13.0576 8.45741 12.925 8.59002H12.905Z" fill="#14AE5C"/>
</svg>
